<svg xmlns="http://www.w3.org/2000/svg" version="1.1" xmlns:xlink="http://www.w3.org/1999/xlink" xmlns:svgjs="http://svgjs.dev/svgjs" width="1500" height="1500" viewBox="0 0 1500 1500"><rect width="1500" height="1500" fill="#fff980"></rect><g transform="matrix(0.6666666666666666,0,0,0.6666666666666666,250.88393442622947,244.40971659919023)"><svg viewBox="0 0 244 247" data-background-color="#fff980" preserveAspectRatio="xMidYMid meet" height="1518" width="1500" xmlns="http://www.w3.org/2000/svg" xmlns:xlink="http://www.w3.org/1999/xlink"><g id="tight-bounds" transform="matrix(1,0,0,1,-0.21567999999999188,-0.09999999999999432)"><svg viewBox="0 0 244.43135999999998 247.2" height="247.2" width="244.43135999999998"><g><svg></svg></g><g><svg viewBox="0 0 244.43135999999998 247.2" height="247.2" width="244.43135999999998"><g transform="matrix(1,0,0,1,0,102.21885498169992)"><svg viewBox="0 0 244.43135999999998 42.762290036600156" height="42.762290036600156" width="244.43135999999998"><g><svg viewBox="0 0 244.43135999999998 42.762290036600156" height="42.762290036600156" width="244.43135999999998"><g><svg viewBox="0 0 244.43135999999998 42.762290036600156" height="42.762290036600156" width="244.43135999999998"><g id="textblocktransform"><svg viewBox="0 0 244.43135999999998 42.762290036600156" height="42.762290036600156" width="244.43135999999998" id="textblock"><g><svg viewBox="0 0 244.43135999999998 23.06393591017852" height="23.06393591017852" width="244.43135999999998"><g transform="matrix(1,0,0,1,0,0)"><svg width="244.43135999999998" viewBox="1.49 -42.19 465.7054909946505 43.949999999999996" height="23.06393591017852" data-palette-color="#2257bf"><g transform="matrix(1,0,0,1,0,0)"><g><svg width="9.129770994650508" viewBox="1.78 -36.86 62.39 37.37" height="5.469029010739704" data-palette-color="#2257bf" id="scriptelement" x="456.17488549732525" y="-38.46879450536985"><path d="M12.91-30.02L1.78-30.02 1.78-36.36 31.64-36.36 31.64-30.02 20.51-30.02 20.51 0 12.91 0 12.91-30.02ZM63.67-25.91L56.3-25.91Q56.09-28.05 54.47-29.24 52.86-30.43 50.09-30.43L50.09-30.43Q48.2-30.43 46.91-29.91 45.61-29.39 44.93-28.46 44.24-27.54 44.24-26.37L44.24-26.37Q44.21-25.39 44.66-24.66 45.11-23.93 45.91-23.41 46.71-22.89 47.76-22.51 48.81-22.12 50-21.86L50-21.86 53.26-21.08Q55.64-20.54 57.63-19.66 59.62-18.77 61.08-17.47 62.53-16.18 63.34-14.42 64.15-12.66 64.17-10.39L64.17-10.39Q64.15-7.05 62.47-4.61 60.79-2.17 57.64-0.83 54.49 0.51 50.05 0.51L50.05 0.51Q45.65 0.51 42.39-0.83 39.13-2.18 37.31-4.84 35.49-7.49 35.4-11.42L35.4-11.42 42.84-11.42Q42.97-9.59 43.9-8.37 44.83-7.16 46.4-6.54 47.97-5.93 49.96-5.93L49.96-5.93Q51.92-5.93 53.36-6.5 54.81-7.07 55.61-8.08 56.41-9.09 56.41-10.4L56.41-10.4Q56.41-11.63 55.69-12.46 54.97-13.3 53.59-13.88 52.22-14.47 50.23-14.95L50.23-14.95 46.27-15.94Q41.67-17.06 39.01-19.44 36.34-21.82 36.36-25.85L36.36-25.85Q36.34-29.15 38.13-31.62 39.91-34.09 43.04-35.48 46.16-36.86 50.14-36.86L50.14-36.86Q54.19-36.86 57.22-35.48 60.24-34.09 61.93-31.62 63.62-29.15 63.67-25.91L63.67-25.91Z" opacity="1" transform="matrix(1,0,0,1,0,0)" fill="#2257bf" class="undefined-123" data-fill-palette-color="primary" id="yy-123"></path></svg></g></g><path d="M454.284-35.734C454.284-39.3 457.174-42.19 460.74-42.19 464.305-42.19 467.195-39.3 467.195-35.734 467.195-32.169 464.305-29.279 460.74-29.279 457.174-29.279 454.284-32.169 454.284-35.734ZM460.74-29.679C464.084-29.679 466.796-32.39 466.796-35.734 466.796-39.079 464.084-41.79 460.74-41.79 457.395-41.79 454.684-39.079 454.684-35.734 454.684-32.39 457.395-29.679 460.74-29.679Z" fill="#2257bf" id="scriptcircle" data-fill-palette-color="primary"></path><path d="M27.86-38.67L1.49-38.67 1.49-40.43 27.86-40.43 27.86-38.67ZM27.86-35.16L1.49-35.16 1.49-36.91 27.86-36.91 27.86-35.16ZM8.52-31.64L1.49-31.64 1.49-33.4 27.86-33.4 27.86-31.64 20.83-31.64 20.83 0 19.07 0 19.07-31.64 17.31-31.64 17.31 0 15.55 0 15.55-31.64 13.79-31.64 13.79 0 12.04 0 12.04-31.64 10.28-31.64 10.28 0 8.52 0 8.52-31.64ZM56.78 0L56.78-17.33Q56.78-20.46 54.86-22.17 52.93-23.88 49.75-23.88L49.75-23.88Q47.07-23.88 45.14-22.02 43.21-20.17 43.21-17.58L43.21-17.58Q43.21-16.11 43.6-14.95 43.99-13.79 44.66-13.02 45.33-12.26 46.26-11.76 47.19-11.25 48.2-11.04 49.22-10.82 50.36-10.82L50.36-10.82Q53.15-10.82 55.44-12.18L55.44-12.18 55.44-10.42Q53.07-9.18 50.34-9.18L50.34-9.18Q48.58-9.18 47.03-9.66 45.48-10.13 44.21-11.1 42.94-12.06 42.2-13.73 41.45-15.41 41.45-17.58L41.45-17.58Q41.45-20.95 43.82-23.29 46.19-25.63 49.75-25.63L49.75-25.63Q53.68-25.63 56.11-23.43 58.54-21.22 58.54-17.33L58.54-17.33 58.54 0 56.78 0ZM62.06-17.33L62.06-17.33 62.06 0 60.3 0 60.3-17.33Q60.3-21.95 57.35-24.67 54.39-27.39 49.75-27.39L49.75-27.39Q45.46-27.39 42.58-24.54 39.69-21.68 39.69-17.58L39.69-17.58Q39.69-15.09 40.56-13.11 41.43-11.13 42.92-9.94 44.41-8.74 46.25-8.12 48.09-7.5 50.14-7.5L50.14-7.5Q52.93-7.5 55.44-8.79L55.44-8.79 55.44-6.93Q52.81-5.83 50.12-5.83L50.12-5.83Q47.7-5.83 45.53-6.58 43.36-7.32 41.65-8.75 39.94-10.18 38.94-12.46 37.94-14.75 37.94-17.58L37.94-17.58Q37.94-22.39 41.34-25.77 44.75-29.15 49.75-29.15L49.75-29.15Q53.27-29.15 56.05-27.72 58.84-26.29 60.45-23.58 62.06-20.87 62.06-17.33ZM65.57-17.33L65.57-17.33 65.57 0 63.82 0 63.82-17.33Q63.82-21.36 61.97-24.48 60.13-27.59 56.93-29.25 53.73-30.91 49.75-30.91L49.75-30.91Q45.97-30.91 42.84-29.11 39.72-27.32 37.95-24.27 36.18-21.22 36.18-17.58L36.18-17.58Q36.18-14.45 37.33-11.88 38.47-9.3 40.41-7.64 42.36-5.98 44.83-5.07 47.31-4.15 50.02-4.15L50.02-4.15Q52.78-4.15 55.44-5.3L55.44-5.3 55.44-3.52Q52.66-2.47 49.97-2.47L49.97-2.47Q45.75-2.47 42.21-4.37 38.67-6.27 36.55-9.77 34.42-13.26 34.42-17.58L34.42-17.58Q34.42-20.65 35.61-23.44 36.79-26.22 38.82-28.25 40.84-30.27 43.7-31.47 46.56-32.67 49.75-32.67L49.75-32.67Q54.22-32.67 57.82-30.76 61.42-28.86 63.5-25.34 65.57-21.83 65.57-17.33ZM69.09-17.33L69.09-17.33 69.09 0 67.33 0 67.33-17.33Q67.33-22.31 65.01-26.23 62.69-30.15 58.69-32.29 54.69-34.42 49.75-34.42L49.75-34.42Q45.02-34.42 41.09-32.15 37.16-29.88 34.91-26.01 32.66-22.14 32.66-17.58L32.66-17.58Q32.66-14.58 33.63-11.88 34.59-9.18 36.26-7.17 37.94-5.15 40.12-3.69 42.31-2.22 44.83-1.46 47.36-0.71 49.97-0.71L49.97-0.71Q52.85-0.71 55.44-1.81L55.44-1.81 55.44 0Q52.73 0.95 49.88 0.95L49.88 0.95Q46.92 0.95 44.13 0.12 41.33-0.71 38.95-2.33 36.57-3.96 34.76-6.16 32.96-8.37 31.93-11.33 30.91-14.28 30.91-17.58L30.91-17.58Q30.91-21.36 32.33-24.79 33.76-28.22 36.24-30.73 38.72-33.23 42.25-34.7 45.77-36.18 49.75-36.18L49.75-36.18Q53.81-36.18 57.37-34.81 60.94-33.45 63.52-31.02 66.11-28.59 67.6-25.05 69.09-21.51 69.09-17.33ZM95.89-21.97L95.89-21.97 95.89 0 94.14 0 94.14-21.97Q94.14-22.68 93.9-23.18 93.67-23.68 93.31-23.95 92.94-24.22 92.34-24.38 91.74-24.54 91.18-24.57 90.62-24.61 89.79-24.61 88.96-24.61 88.4-24.57 87.84-24.54 87.24-24.38 86.64-24.22 86.27-23.95 85.91-23.68 85.68-23.18 85.44-22.68 85.44-21.97L85.44-21.97 85.44 0 83.69 0 83.69-21.97Q83.69-26.37 89.79-26.37 95.89-26.37 95.89-21.97ZM99.41-21.97L99.41-21.97 99.41 0 97.65 0 97.65-21.97Q97.65-25.07 95.47-26.6 93.28-28.13 89.79-28.13 86.3-28.13 84.11-26.6 81.93-25.07 81.93-21.97L81.93-21.97 81.93 0 80.17 0 80.17-21.97Q80.17-24.54 81.49-26.37 82.81-28.2 84.94-29.04 87.08-29.88 89.79-29.88 92.5-29.88 94.64-29.04 96.77-28.2 98.09-26.37 99.41-24.54 99.41-21.97ZM102.92-21.97L102.92-21.97 102.92 0 101.17 0 101.17-21.97Q101.17-24.27 100.28-26.12 99.38-27.98 97.82-29.17 96.26-30.37 94.21-31.01 92.16-31.64 89.79-31.64 87.42-31.64 85.37-31.01 83.32-30.37 81.76-29.17 80.2-27.98 79.3-26.12 78.41-24.27 78.41-21.97L78.41-21.97 78.41 0 76.66 0 76.66-21.97Q76.66-24.63 77.69-26.81 78.73-28.98 80.51-30.41 82.29-31.84 84.69-32.62 87.08-33.4 89.79-33.4 92.5-33.4 94.89-32.62 97.29-31.84 99.07-30.41 100.85-28.98 101.89-26.81 102.92-24.63 102.92-21.97ZM106.44-21.97L106.44 0 104.68 0 104.68-21.97Q104.68-24.63 103.5-27.08 102.31-29.52 100.31-31.29 98.31-33.06 95.55-34.11 92.79-35.16 89.79-35.16L89.79-35.16Q85.66-35.16 82.31-33.61 78.95-32.06 76.92-29.02 74.9-25.98 74.9-21.97L74.9-21.97 74.9 0 73.14 0 73.14-21.97Q73.14-25.34 74.46-28.17 75.78-31.01 78.03-32.91 80.29-34.81 83.33-35.86 86.37-36.91 89.79-36.91L89.79-36.91Q95.84-36.91 100.29-33.86L100.29-33.86Q104.73-36.91 110.79-36.91L110.79-36.91Q114.2-36.91 117.24-35.86 120.28-34.81 122.54-32.91 124.8-31.01 126.12-28.17 127.44-25.34 127.44-21.97L127.44-21.97 127.44 0 125.68 0 125.68-21.97Q125.68-25.95 123.65-28.99 121.63-32.03 118.27-33.59 114.91-35.16 110.79-35.16L110.79-35.16Q105.61-35.16 101.75-32.71L101.75-32.71Q102.31-32.23 103-31.45L103-31.45Q106.34-33.4 110.79-33.4L110.79-33.4Q113.5-33.4 115.89-32.62 118.28-31.84 120.06-30.41 121.85-28.98 122.88-26.81 123.92-24.63 123.92-21.97L123.92-21.97 123.92 0 122.16 0 122.16-21.97Q122.16-24.27 121.27-26.12 120.38-27.98 118.82-29.17 117.26-30.37 115.2-31.01 113.15-31.64 110.79-31.64L110.79-31.64Q106.9-31.64 104.07-30.05L104.07-30.05Q104.51-29.37 104.95-28.54L104.95-28.54Q107.34-29.88 110.79-29.88L110.79-29.88Q113.5-29.88 115.63-29.04 117.77-28.2 119.09-26.37 120.41-24.54 120.41-21.97L120.41-21.97 120.41 0 118.65 0 118.65-21.97Q118.65-25.07 116.46-26.6 114.28-28.13 110.79-28.13L110.79-28.13Q107.61-28.13 105.63-26.95L105.63-26.95Q105.95-26.03 106.12-25.2L106.12-25.2Q107.66-26.37 110.79-26.37L110.79-26.37Q116.89-26.37 116.89-21.97L116.89-21.97 116.89 0 115.13 0 115.13-21.97Q115.13-22.68 114.9-23.18 114.67-23.68 114.3-23.95 113.94-24.22 113.34-24.38 112.74-24.54 112.18-24.57 111.62-24.61 110.79-24.61 109.96-24.61 109.39-24.57 108.83-24.54 108.23-24.38 107.64-24.22 107.27-23.95 106.9-23.68 106.67-23.18 106.44-22.68 106.44-21.97L106.44-21.97ZM154.29-21.97L154.29-21.97 154.29 0 152.53 0 152.53-21.97Q152.53-22.68 152.3-23.18 152.07-23.68 151.7-23.95 151.34-24.22 150.74-24.38 150.14-24.54 149.58-24.57 149.02-24.61 148.19-24.61 147.36-24.61 146.79-24.57 146.23-24.54 145.63-24.38 145.04-24.22 144.67-23.95 144.3-23.68 144.07-23.18 143.84-22.68 143.84-21.97L143.84-21.97 143.84 0 142.08 0 142.08-21.97Q142.08-26.37 148.19-26.37 154.29-26.37 154.29-21.97ZM157.81-21.97L157.81-21.97 157.81 0 156.05 0 156.05-21.97Q156.05-25.07 153.86-26.6 151.68-28.13 148.19-28.13 144.69-28.13 142.51-26.6 140.32-25.07 140.32-21.97L140.32-21.97 140.32 0 138.57 0 138.57-21.97Q138.57-24.54 139.89-26.37 141.2-28.2 143.34-29.04 145.48-29.88 148.19-29.88 150.9-29.88 153.03-29.04 155.17-28.2 156.49-26.37 157.81-24.54 157.81-21.97ZM161.32-21.97L161.32-21.97 161.32 0 159.56 0 159.56-21.97Q159.56-24.27 158.67-26.12 157.78-27.98 156.22-29.17 154.66-30.37 152.6-31.01 150.55-31.64 148.19-31.64 145.82-31.64 143.77-31.01 141.72-30.37 140.15-29.17 138.59-27.98 137.7-26.12 136.81-24.27 136.81-21.97L136.81-21.97 136.81 0 135.05 0 135.05-21.97Q135.05-24.63 136.09-26.81 137.13-28.98 138.91-30.41 140.69-31.84 143.08-32.62 145.48-33.4 148.19-33.4 150.9-33.4 153.29-32.62 155.68-31.84 157.46-30.41 159.25-28.98 160.28-26.81 161.32-24.63 161.32-21.97ZM164.84-21.97L164.84 0 163.08 0 163.08-21.97Q163.08-24.63 161.89-27.08 160.71-29.52 158.71-31.29 156.71-33.06 153.95-34.11 151.19-35.16 148.19-35.16L148.19-35.16Q144.06-35.16 140.7-33.61 137.35-32.06 135.32-29.02 133.29-25.98 133.29-21.97L133.29-21.97 133.29 0 131.54 0 131.54-21.97Q131.54-25.34 132.85-28.17 134.17-31.01 136.43-32.91 138.69-34.81 141.73-35.86 144.77-36.91 148.19-36.91L148.19-36.91Q154.24-36.91 158.68-33.86L158.68-33.86Q163.13-36.91 169.18-36.91L169.18-36.91Q172.6-36.91 175.64-35.86 178.68-34.81 180.94-32.91 183.2-31.01 184.51-28.17 185.83-25.34 185.83-21.97L185.83-21.97 185.83 0 184.07 0 184.07-21.97Q184.07-25.95 182.05-28.99 180.02-32.03 176.66-33.59 173.31-35.16 169.18-35.16L169.18-35.16Q164.01-35.16 160.15-32.71L160.15-32.71Q160.71-32.23 161.39-31.45L161.39-31.45Q164.74-33.4 169.18-33.4L169.18-33.4Q171.89-33.4 174.28-32.62 176.68-31.84 178.46-30.41 180.24-28.98 181.28-26.81 182.32-24.63 182.32-21.97L182.32-21.97 182.32 0 180.56 0 180.56-21.97Q180.56-24.27 179.67-26.12 178.78-27.98 177.21-29.17 175.65-30.37 173.6-31.01 171.55-31.64 169.18-31.64L169.18-31.64Q165.3-31.64 162.47-30.05L162.47-30.05Q162.91-29.37 163.35-28.54L163.35-28.54Q165.74-29.88 169.18-29.88L169.18-29.88Q171.89-29.88 174.03-29.04 176.16-28.2 177.48-26.37 178.8-24.54 178.8-21.97L178.8-21.97 178.8 0 177.04 0 177.04-21.97Q177.04-25.07 174.86-26.6 172.67-28.13 169.18-28.13L169.18-28.13Q166.01-28.13 164.03-26.95L164.03-26.95Q164.35-26.03 164.52-25.2L164.52-25.2Q166.06-26.37 169.18-26.37L169.18-26.37Q175.29-26.37 175.29-21.97L175.29-21.97 175.29 0 173.53 0 173.53-21.97Q173.53-22.68 173.3-23.18 173.06-23.68 172.7-23.95 172.33-24.22 171.73-24.38 171.14-24.54 170.57-24.57 170.01-24.61 169.18-24.61 168.35-24.61 167.79-24.57 167.23-24.54 166.63-24.38 166.03-24.22 165.67-23.95 165.3-23.68 165.07-23.18 164.84-22.68 164.84-21.97L164.84-21.97ZM211.07-11.87L222.13-35.16 223.89-35.16 212.83-11.87 212.83 0 211.07 0 211.07-11.87ZM207.56-11.87L218.62-35.16 220.38-35.16 209.32-11.87 209.32 0 207.56 0 207.56-11.87ZM204.04-11.87L215.1-35.16 216.86-35.16 205.8-11.87 205.8 0 204.04 0 204.04-11.87ZM201.38-13.65L211.59-35.16 213.34-35.16 202.28-11.87 202.28 0 200.53 0 200.53-11.87 188.74-35.16 190.49-35.16 201.38-13.65ZM201.87-16.65L192.28-35.16 194.03-35.16 202.75-18.58 201.87-16.65ZM203.6-20.51L195.79-35.16 197.57-35.16 204.51-22.44 203.6-20.51ZM205.39-24.34L199.36-35.16 201.11-35.16 206.26-26.27 205.39-24.34ZM248.64-24.61L248.64-24.61 245.69-24.61Q243.81-24.61 242.98-25.57 242.15-26.54 242.15-28.13L242.15-28.13Q242.15-31.64 247.4-31.64L247.4-31.64Q252.33-31.64 254.82-30.18L254.82-30.18 253.4-29.1Q251.69-29.88 247.4-29.88L247.4-29.88Q245.3-29.88 244.58-29.42 243.86-28.96 243.86-28.13 243.86-27.29 244.25-26.83 244.64-26.37 245.69-26.37L245.69-26.37 248.72-26.37Q252.01-26.37 254.66-25.24 257.31-24.12 259.02-22.18 260.73-20.24 261.63-17.71 262.53-15.19 262.53-12.3L262.53-12.3Q262.53-9.96 261.87-7.86 261.22-5.76 259.88-4 258.55-2.25 256.69-0.96 254.82 0.32 252.24 1.04 249.67 1.76 246.66 1.76L246.66 1.76Q241.95 1.76 237.84 0.33 233.73-1.1 230.99-3.66L230.99-3.66 232.41-4.71Q234.9-2.47 238.64-1.23 242.39 0 246.66 0L246.66 0Q250.01 0 252.71-0.96 255.4-1.93 257.15-3.61 258.9-5.3 259.84-7.52 260.78-9.74 260.78-12.3L260.78-12.3Q260.78-15.7 259.41-18.44 258.04-21.19 255.25-22.9 252.45-24.61 248.64-24.61ZM245.69-22.85L245.69-22.85 248.47-22.85Q253.43-22.85 256.22-19.82 259.02-16.8 259.02-12.3L259.02-12.3Q259.02-7.74 255.77-4.75 252.52-1.76 246.66-1.76L246.66-1.76Q242.76-1.76 239.36-2.83 235.97-3.91 233.73-5.86L233.73-5.86 235.09-6.96Q237.09-5.32 240.13-4.42 243.17-3.52 246.66-3.52L246.66-3.52Q251.82-3.52 254.54-5.98 257.26-8.45 257.26-12.3L257.26-12.3Q257.26-16.11 254.98-18.6 252.69-21.09 248.45-21.09L248.45-21.09 245.69-21.09Q242.12-21.09 240.34-23.05 238.56-25 238.56-28.13 238.56-31.25 240.77-33.2 242.98-35.16 247.4-35.16L247.4-35.16Q250.5-35.16 253.16-34.44 255.82-33.72 257.55-32.37L257.55-32.37 256.16-31.3Q253.11-33.4 247.4-33.4L247.4-33.4Q243.71-33.4 242.01-31.95 240.32-30.49 240.32-28.13L240.32-28.13Q240.32-25.73 241.57-24.29 242.83-22.85 245.69-22.85ZM245.69-19.34L245.69-19.34 248.37-19.34Q251.94-19.34 253.72-17.36 255.5-15.38 255.5-12.3L255.5-12.3Q255.5-9.18 253.29-7.23 251.08-5.27 246.66-5.27L246.66-5.27Q243.56-5.27 240.89-5.99 238.22-6.71 236.48-8.06L236.48-8.06 237.88-9.13Q240.93-7.03 246.66-7.03L246.66-7.03Q250.35-7.03 252.05-8.48 253.74-9.94 253.74-12.3 253.74-14.67 252.48-16.13 251.21-17.58 248.35-17.58L248.35-17.58 245.69-17.58Q240.68-17.58 237.86-20.57 235.04-23.56 235.04-28.13 235.04-32.69 238.29-35.68 241.54-38.67 247.4-38.67L247.4-38.67Q251.3-38.67 254.68-37.6 258.07-36.52 260.31-34.57L260.31-34.57 258.94-33.47Q256.94-35.11 253.92-36.01 250.89-36.91 247.4-36.91L247.4-36.91Q242.25-36.91 239.52-34.45 236.8-31.98 236.8-28.13L236.8-28.13Q236.8-24.29 239.1-21.81 241.39-19.34 245.69-19.34ZM245.69-15.82L245.69-15.82 248.37-15.82Q250.25-15.82 251.08-14.84 251.91-13.87 251.91-12.3L251.91-12.3Q251.91-8.79 246.66-8.79L246.66-8.79Q241.71-8.79 239.22-10.25L239.22-10.25 240.63-11.33Q242.34-10.55 246.66-10.55L246.66-10.55Q248.76-10.55 249.48-11.01 250.2-11.47 250.2-12.3L250.2-12.3Q250.2-13.11 249.8-13.59 249.4-14.06 248.32-14.06L248.32-14.06 245.69-14.06Q242.32-14.06 239.6-15.16 236.87-16.26 235.13-18.19 233.38-20.12 232.46-22.66 231.53-25.2 231.53-28.13L231.53-28.13Q231.53-30.47 232.19-32.57 232.85-34.67 234.18-36.43 235.51-38.18 237.38-39.47 239.24-40.75 241.82-41.47 244.39-42.19 247.4-42.19L247.4-42.19Q252.11-42.19 256.21-40.76 260.31-39.33 263.05-36.77L263.05-36.77 261.63-35.72Q259.14-37.96 255.4-39.2 251.67-40.43 247.4-40.43L247.4-40.43Q244.05-40.43 241.35-39.47 238.66-38.5 236.91-36.82 235.17-35.13 234.23-32.91 233.29-30.69 233.29-28.13L233.29-28.13Q233.29-24.68 234.68-21.92 236.07-19.17 238.93-17.49 241.78-15.82 245.69-15.82ZM293.56-17.43L303.35-35.16 301.4-35.16 291.61-17.43 301.25 0 303.21 0 293.56-17.43ZM289.63-17.43L299.42-35.16 297.47-35.16 287.68-17.43 297.32 0 299.27 0 289.63-17.43ZM285.7-17.43L295.49-35.16 293.54-35.16 283.75-17.43 293.39 0 295.34 0 285.7-17.43ZM281.75-17.43L291.56-35.16 289.61-35.16 279.79-17.43 289.46 0 291.41 0 281.75-17.43ZM276.96 0L276.96-35.16 278.72-35.16 278.72 0 276.96 0ZM273.44 0L273.44-35.16 275.2-35.16 275.2 0 273.44 0ZM269.93 0L269.93-35.16 271.69-35.16 271.69 0 269.93 0ZM266.41 0L266.41-35.16 268.17-35.16 268.17 0 266.41 0ZM327.35-11.87L338.41-35.16 340.17-35.16 329.11-11.87 329.11 0 327.35 0 327.35-11.87ZM323.83-11.87L334.89-35.16 336.65-35.16 325.59-11.87 325.59 0 323.83 0 323.83-11.87ZM320.32-11.87L331.38-35.16 333.13-35.16 322.07-11.87 322.07 0 320.32 0 320.32-11.87ZM317.66-13.65L327.86-35.16 329.62-35.16 318.56-11.87 318.56 0 316.8 0 316.8-11.87 305.01-35.16 306.77-35.16 317.66-13.65ZM318.14-16.65L308.55-35.16 310.31-35.16 319.02-18.58 318.14-16.65ZM319.88-20.51L312.06-35.16 313.85-35.16 320.78-22.44 319.88-20.51ZM321.66-24.34L315.63-35.16 317.39-35.16 322.54-26.27 321.66-24.34ZM343.17 0L343.17-35.16 344.92-35.16 344.92 0 343.17 0ZM353.71 0L353.71-35.16 355.47-35.16 355.47-8.79 368.43-8.79 368.43-7.03 355.47-7.03 355.47-5.27 368.43-5.27 368.43-3.52 355.47-3.52 355.47-1.76 368.43-1.76 368.43 0 353.71 0ZM350.2 0L350.2-35.16 351.96-35.16 351.96 0 350.2 0ZM346.68 0L346.68-35.16 348.44-35.16 348.44 0 346.68 0ZM397.27 0L397.27-17.33Q397.27-20.46 395.34-22.17 393.41-23.88 390.23-23.88L390.23-23.88Q387.55-23.88 385.62-22.02 383.69-20.17 383.69-17.58L383.69-17.58Q383.69-16.11 384.08-14.95 384.47-13.79 385.14-13.02 385.81-12.26 386.74-11.76 387.67-11.25 388.68-11.04 389.7-10.82 390.84-10.82L390.84-10.82Q393.63-10.82 395.92-12.18L395.92-12.18 395.92-10.42Q393.55-9.18 390.82-9.18L390.82-9.18Q389.06-9.18 387.51-9.66 385.96-10.13 384.69-11.1 383.42-12.06 382.68-13.73 381.93-15.41 381.93-17.58L381.93-17.58Q381.93-20.95 384.3-23.29 386.67-25.63 390.23-25.63L390.23-25.63Q394.16-25.63 396.59-23.43 399.02-21.22 399.02-17.33L399.02-17.33 399.02 0 397.27 0ZM402.54-17.33L402.54-17.33 402.54 0 400.78 0 400.78-17.33Q400.78-21.95 397.83-24.67 394.87-27.39 390.23-27.39L390.23-27.39Q385.94-27.39 383.06-24.54 380.18-21.68 380.18-17.58L380.18-17.58Q380.18-15.09 381.04-13.11 381.91-11.13 383.4-9.94 384.89-8.74 386.73-8.12 388.57-7.5 390.62-7.5L390.62-7.5Q393.41-7.5 395.92-8.79L395.92-8.79 395.92-6.93Q393.29-5.83 390.6-5.83L390.6-5.83Q388.18-5.83 386.01-6.58 383.84-7.32 382.13-8.75 380.42-10.18 379.42-12.46 378.42-14.75 378.42-17.58L378.42-17.58Q378.42-22.39 381.82-25.77 385.23-29.15 390.23-29.15L390.23-29.15Q393.75-29.15 396.53-27.72 399.32-26.29 400.93-23.58 402.54-20.87 402.54-17.33ZM406.05-17.33L406.05-17.33 406.05 0 404.3 0 404.3-17.33Q404.3-21.36 402.45-24.48 400.61-27.59 397.41-29.25 394.21-30.91 390.23-30.91L390.23-30.91Q386.45-30.91 383.32-29.11 380.2-27.32 378.43-24.27 376.66-21.22 376.66-17.58L376.66-17.58Q376.66-14.45 377.81-11.88 378.95-9.3 380.9-7.64 382.84-5.98 385.31-5.07 387.79-4.15 390.5-4.15L390.5-4.15Q393.26-4.15 395.92-5.3L395.92-5.3 395.92-3.52Q393.14-2.47 390.45-2.47L390.45-2.47Q386.23-2.47 382.69-4.37 379.15-6.27 377.03-9.77 374.9-13.26 374.9-17.58L374.9-17.58Q374.9-20.65 376.09-23.44 377.27-26.22 379.3-28.25 381.32-30.27 384.18-31.47 387.04-32.67 390.23-32.67L390.23-32.67Q394.7-32.67 398.3-30.76 401.9-28.86 403.98-25.34 406.05-21.83 406.05-17.33ZM409.57-17.33L409.57-17.33 409.57 0 407.81 0 407.81-17.33Q407.81-22.31 405.49-26.23 403.17-30.15 399.17-32.29 395.17-34.42 390.23-34.42L390.23-34.42Q385.5-34.42 381.57-32.15 377.64-29.88 375.39-26.01 373.14-22.14 373.14-17.58L373.14-17.58Q373.14-14.58 374.11-11.88 375.07-9.18 376.75-7.17 378.42-5.15 380.6-3.69 382.79-2.22 385.31-1.46 387.84-0.71 390.45-0.71L390.45-0.71Q393.33-0.71 395.92-1.81L395.92-1.81 395.92 0Q393.21 0.95 390.36 0.95L390.36 0.95Q387.4 0.95 384.61 0.12 381.81-0.71 379.43-2.33 377.05-3.96 375.24-6.16 373.44-8.37 372.41-11.33 371.39-14.28 371.39-17.58L371.39-17.58Q371.39-21.36 372.81-24.79 374.24-28.22 376.72-30.73 379.2-33.23 382.73-34.7 386.25-36.18 390.23-36.18L390.23-36.18Q394.29-36.18 397.85-34.81 401.42-33.45 404-31.02 406.59-28.59 408.08-25.05 409.57-21.51 409.57-17.33ZM427.19-15.04L427.19-16.8 437.79-16.8Q439.89-16.8 441.35-18.12 442.82-19.43 442.82-21.83L442.82-21.83Q442.82-23.58 441.29-24.98 439.77-26.37 437.79-26.37L437.79-26.37 422.7-26.37 422.7 0 420.94 0 420.94-28.13 437.79-28.13Q440.5-28.13 442.54-26.22 444.58-24.32 444.58-21.83L444.58-21.83Q444.58-18.73 442.6-16.88 440.62-15.04 437.79-15.04L437.79-15.04 427.19-15.04ZM427.19-11.52L427.19-13.28 437.79-13.28Q441.31-13.28 443.82-15.67 446.33-18.07 446.33-21.83L446.33-21.83Q446.33-25.02 443.77-27.45 441.21-29.88 437.79-29.88L437.79-29.88 419.19-29.88 419.19 0 417.43 0 417.43-31.64 437.79-31.64Q441.94-31.64 445.02-28.7 448.09-25.76 448.09-21.83L448.09-21.83Q448.09-17.43 445.05-14.48 442.01-11.52 437.79-11.52L437.79-11.52 427.19-11.52ZM427.19-8.01L427.19-9.77 437.79-9.77Q441.04-9.77 443.8-11.33 446.55-12.89 448.2-15.67 449.85-18.46 449.85-21.83L449.85-21.83Q449.85-24.88 448.21-27.55 446.58-30.22 443.78-31.81 440.99-33.4 437.79-33.4L437.79-33.4 415.67-33.4 415.67 0 413.91 0 413.91-35.16 437.79-35.16Q440.55-35.16 443.1-34.07 445.65-32.98 447.51-31.19 449.36-29.39 450.49-26.93 451.61-24.46 451.61-21.83L451.61-21.83Q451.61-17.55 449.66-14.37 447.7-11.18 444.41-9.52L444.41-9.52 448.09 0 446.21 0 442.72-8.81Q442.06-8.59 441.18-8.37L441.18-8.37 444.48 0 442.6 0 439.38-8.08Q438.62-8.01 437.79-8.01L437.79-8.01 440.89 0 439.04 0 435.96-8.01 434.37-8.01 437.33 0 435.47 0 432.49-8.01 427.19-8.01ZM426.22-22.85L426.22 0 424.46 0 424.46-24.61 437.79-24.61Q439.16-24.61 440.11-23.79 441.06-22.97 441.06-21.83L441.06-21.83Q441.06-18.55 437.79-18.55L437.79-18.55 427.19-18.55 427.19-20.31 437.79-20.31Q439.3-20.31 439.3-21.83L439.3-21.83Q439.3-22.24 438.85-22.55 438.4-22.85 437.79-22.85L437.79-22.85 426.22-22.85Z" opacity="1" transform="matrix(1,0,0,1,0,0)" fill="#2257bf" class="wordmark-text-0" data-fill-palette-color="primary" id="text-0"></path></svg></g></svg></g><g transform="matrix(1,0,0,1,0,28.508777644109827)"><svg viewBox="0 0 235.25921021217437 14.253512392490327" height="14.253512392490327" width="235.25921021217437"><g transform="matrix(1,0,0,1,0,0)"><svg width="235.25921021217437" viewBox="-12.05 -31.25 528.17 32" height="14.253512392490327" data-palette-color="#2257bf"><path d="M12.05-2.4L11.65-0.15-9.5-2.4 12.05-2.4ZM12.85-7.25L12.5-5-8.65-7.25 12.85-7.25ZM12.4-12.05L12.85-9.8-8.35-12.05 12.4-12.05ZM11.45-16.85L11.9-14.6-9.3-16.85 11.45-16.85ZM-11.15-26.45L9.55-26.45 10-24.2-11.15-26.45ZM-10.2-21.65L10.5-21.65 10.95-19.4-10.2-21.65ZM8.65-31.25L9.1-29-12.05-31.25 8.65-31.25ZM10.15-31.25L20.65-31.25 21.3-20.25 21.65-20.25 26.25-31.25 36.75-31.25 24.15-8.5 22.7 0 13.2 0 14.65-8.5 10.15-31.25ZM77.92 0L68.42 0 73.92-31.25 83.42-31.25 77.92 0ZM67.32-2.4L66.92-0.15 45.72-2.4 67.32-2.4ZM69.02-12.05L68.62-9.8 47.42-12.05 69.02-12.05ZM69.87-16.85L69.47-14.6 48.27-16.85 69.87-16.85ZM70.72-21.65L70.32-19.4 49.12-21.65 70.72-21.65ZM71.52-26.45L71.17-24.2 49.97-26.45 71.52-26.45ZM68.17-7.25L67.77-5 46.57-7.25 68.17-7.25ZM72.37-31.25L71.97-29 50.82-31.25 72.37-31.25ZM124.04-16.2L123.14-14.65 102.59-16.85 123.89-16.85 124.04-16.2ZM114.84-0.25L94.49-2.4 116.09-2.4 114.84-0.25ZM122.69-21.65L123.24-19.4 102.09-21.65 122.69-21.65ZM121.64-12.05L120.39-9.9 100.09-12.05 121.64-12.05ZM122.09-24.2L122.09-24.2 100.94-26.45 121.54-26.45Q121.69-25.7 122.09-24.2ZM120.94-29L120.94-29 99.79-31.25 120.39-31.25Q120.54-30.5 120.94-29ZM118.89-7.25L117.64-5.1 97.34-7.25 118.89-7.25ZM121.94-31.25L132.74-31.25 134.49-22.9 134.99-22.9 139.74-31.25 150.04-31.25 140.74-16.15 144.54 0 133.99 0 131.99-9 131.59-9 126.49 0 116.44 0 125.64-15.85 121.94-31.25ZM185.36-21.65L184.96-19.4 163.76-21.65 185.36-21.65ZM184.51-16.85L184.11-14.6 162.96-16.85 184.51-16.85ZM187.06-31.25L186.66-29 165.51-31.25 187.06-31.25ZM185.81-24.2L164.66-26.45 186.21-26.45 185.81-24.2ZM162.26-12.05L183.66-12.05Q183.46-10.4 183.41-9.8L183.41-9.8 162.26-12.05ZM162.31-7.25L183.31-7.25Q183.31-6.05 183.46-5L183.46-5 162.31-7.25ZM164.61-2.4L184.16-2.4Q184.81-1 185.76-0.15L185.76-0.15 164.61-2.4ZM193.96-7.8L197.36-7.8Q199.11-7.8 199.86-8.28 200.61-8.75 200.91-10.45L200.91-10.45 204.61-31.25 214.11-31.25 211.01-13.7Q210.26-9.45 209.29-6.85 208.31-4.25 206.56-2.45 204.81-0.65 202.24 0.05 199.66 0.75 195.71 0.75L195.71 0.75Q189.66 0.75 187.24-1.07 184.81-2.9 184.81-7.35L184.81-7.35Q184.81-9.8 185.51-13.7L185.51-13.7 188.61-31.25 198.11-31.25 193.96-7.8ZM260.84-4.95L258.89 0 248.89 0 262.04-31.25 276.74-31.25 278.94 0 268.89 0 268.69-4.95 260.84-4.95ZM263.94-12.9L267.94-12.9 267.94-21.65 267.44-21.65 263.94-12.9ZM248.24-2.4L247.29-0.2 226.79-2.4 248.24-2.4ZM250.29-7.25L249.34-5.05 228.84-7.25 250.29-7.25ZM252.29-12.05L251.39-9.85 230.89-12.05 252.29-12.05ZM254.34-16.85L253.39-14.65 232.94-16.85 254.34-16.85ZM256.34-21.65L255.44-19.45 234.99-21.65 256.34-21.65ZM260.39-31.25L259.49-29.1 239.09-31.25 260.39-31.25ZM258.34-26.45L257.44-24.3 237.04-26.45 258.34-26.45ZM239.09-31.25L259.49-29.1 260.39-31.25 239.09-31.25ZM335.01 0L329.91-11.1Q329.71-11.45 329.71-12.08 329.71-12.7 329.81-13.5L329.81-13.5 329.41-13.5 327.06 0 317.56 0 323.06-31.25 332.01-31.25 337.11-20.15Q337.26-19.8 337.26-19.18 337.26-18.55 337.16-17.75L337.16-17.75 337.56-17.75 339.96-31.25 349.46-31.25 343.96 0 335.01 0ZM316.46-2.4L316.06-0.15 294.86-2.4 316.46-2.4ZM318.16-12.05L317.76-9.8 296.56-12.05 318.16-12.05ZM319.01-16.85L318.61-14.6 297.41-16.85 319.01-16.85ZM319.86-21.65L319.46-19.4 298.26-21.65 319.86-21.65ZM320.66-26.45L320.31-24.2 299.11-26.45 320.66-26.45ZM317.31-7.25L316.91-5 295.71-7.25 317.31-7.25ZM321.51-31.25L321.11-29 299.96-31.25 321.51-31.25ZM426.05-16.2L425.15-14.65 404.6-16.85 425.9-16.85 426.05-16.2ZM416.85-0.25L396.5-2.4 418.1-2.4 416.85-0.25ZM424.7-21.65L425.25-19.4 404.1-21.65 424.7-21.65ZM423.65-12.05L422.4-9.9 402.1-12.05 423.65-12.05ZM424.1-24.2L424.1-24.2 402.95-26.45 423.55-26.45Q423.7-25.7 424.1-24.2ZM422.95-29L422.95-29 401.8-31.25 422.4-31.25Q422.55-30.5 422.95-29ZM420.9-7.25L419.65-5.1 399.35-7.25 420.9-7.25ZM423.95-31.25L434.75-31.25 436.5-22.9 437-22.9 441.75-31.25 452.05-31.25 442.75-16.15 446.55 0 436 0 434-9 433.6-9 428.5 0 418.45 0 427.65-15.85 423.95-31.25ZM487.37-21.65L486.97-19.4 465.77-21.65 487.37-21.65ZM486.52-16.85L486.12-14.6 464.97-16.85 486.52-16.85ZM489.07-31.25L488.67-29 467.52-31.25 489.07-31.25ZM487.82-24.2L466.67-26.45 488.22-26.45 487.82-24.2ZM464.27-12.05L485.67-12.05Q485.47-10.4 485.42-9.8L485.42-9.8 464.27-12.05ZM464.32-7.25L485.32-7.25Q485.32-6.05 485.47-5L485.47-5 464.32-7.25ZM466.62-2.4L486.17-2.4Q486.82-1 487.77-0.15L487.77-0.15 466.62-2.4ZM495.97-7.8L499.37-7.8Q501.12-7.8 501.87-8.28 502.62-8.75 502.92-10.45L502.92-10.45 506.62-31.25 516.12-31.25 513.02-13.7Q512.27-9.45 511.3-6.85 510.32-4.25 508.57-2.45 506.82-0.65 504.25 0.05 501.67 0.75 497.72 0.75L497.72 0.75Q491.67 0.75 489.25-1.07 486.82-2.9 486.82-7.35L486.82-7.35Q486.82-9.8 487.52-13.7L487.52-13.7 490.62-31.25 500.12-31.25 495.97-7.8Z" opacity="1" transform="matrix(1,0,0,1,0,0)" fill="#2257bf" class="slogan-text-1" data-fill-palette-color="secondary" id="text-1"></path></svg></g></svg></g></svg></g></svg></g><g></g></svg></g></svg></g><path d="M0 96.219L0 1 244.431 1 244.431 96.219 242.351 96.219 242.351 3.08 2.08 3.08 2.08 96.219 0 96.219M0 150.981L0 246.2 244.431 246.2 244.431 150.981 242.351 150.981 242.351 244.12 2.08 244.12 2.08 150.981 0 150.981" fill="#2257bf" stroke="transparent" data-fill-palette-color="primary"></path></svg></g><defs></defs></svg><rect width="244.43135999999998" height="247.2" fill="none" stroke="none" visibility="hidden"></rect></g></svg></g></svg>